<svg width="17" height="18" viewBox="0 0 17 18" fill="currentColor" xmlns="http://www.w3.org/2000/svg">
    <path d="M8 0C8.25488 0.000282707 8.50003 0.0978791 8.68537 0.272848C8.8707 0.447818 8.98223 0.686953 8.99717 0.941395C9.01211 1.19584 8.92933 1.44638 8.76574 1.64183C8.60215 1.83729 8.3701 1.9629 8.117 1.993L8 2H3C2.75507 2.00003 2.51866 2.08996 2.33563 2.25272C2.15259 2.41547 2.03566 2.63975 2.007 2.883L2 3V15C2.00003 15.2449 2.08996 15.4813 2.25272 15.6644C2.41547 15.8474 2.63975 15.9643 2.883 15.993L3 16H7.5C7.75488 16.0003 8.00003 16.0979 8.18537 16.2728C8.3707 16.4478 8.48223 16.687 8.49717 16.9414C8.51211 17.1958 8.42933 17.4464 8.26574 17.6418C8.10215 17.8373 7.8701 17.9629 7.617 17.993L7.5 18H3C2.23479 18 1.49849 17.7077 0.941739 17.1827C0.384993 16.6578 0.0498925 15.9399 0.00500012 15.176L4.66045e-09 15V3C-4.26217e-05 2.23479 0.292325 1.49849 0.817284 0.941739C1.34224 0.384993 2.06011 0.0498925 2.824 0.00500011L3 0H8ZM13.707 5.464L16.535 8.293C16.7225 8.48053 16.8278 8.73484 16.8278 9C16.8278 9.26516 16.7225 9.51947 16.535 9.707L13.707 12.536C13.5194 12.7235 13.2649 12.8288 12.9996 12.8287C12.7344 12.8286 12.48 12.7231 12.2925 12.5355C12.105 12.3479 11.9997 12.0934 11.9998 11.8281C11.9999 11.5629 12.1054 11.3085 12.293 11.121L13.414 10H8C7.73478 10 7.48043 9.89464 7.29289 9.70711C7.10536 9.51957 7 9.26522 7 9C7 8.73478 7.10536 8.48043 7.29289 8.29289C7.48043 8.10536 7.73478 8 8 8H13.414L12.293 6.879C12.1054 6.69149 11.9999 6.43712 11.9998 6.17185C11.9997 5.90658 12.105 5.65214 12.2925 5.4645C12.48 5.27686 12.7344 5.17139 12.9996 5.1713C13.2649 5.1712 13.5194 5.27649 13.707 5.464Z"/>
</svg>
