<svg width="21" height="17" viewBox="0 0 21 17" fill="none" xmlns="http://www.w3.org/2000/svg">
    <path d="M0.75 12L5.909 6.841C6.11793 6.63206 6.36597 6.46633 6.63896 6.35325C6.91194 6.24018 7.20452 6.18198 7.5 6.18198C7.79548 6.18198 8.08806 6.24018 8.36104 6.35325C8.63403 6.46633 8.88207 6.63206 9.091 6.841L14.25 12M12.75 10.5L14.159 9.091C14.3679 8.88206 14.616 8.71633 14.889 8.60325C15.1619 8.49018 15.4545 8.43198 15.75 8.43198C16.0455 8.43198 16.3381 8.49018 16.611 8.60325C16.884 8.71633 17.1321 8.88206 17.341 9.091L20.25 12M2.25 15.75H18.75C19.1478 15.75 19.5294 15.592 19.8107 15.3107C20.092 15.0294 20.25 14.6478 20.25 14.25V2.25C20.25 1.85218 20.092 1.47064 19.8107 1.18934C19.5294 0.908035 19.1478 0.75 18.75 0.75H2.25C1.85218 0.75 1.47064 0.908035 1.18934 1.18934C0.908035 1.47064 0.75 1.85218 0.75 2.25V14.25C0.75 14.6478 0.908035 15.0294 1.18934 15.3107C1.47064 15.592 1.85218 15.75 2.25 15.75ZM12.75 4.5H12.758V4.508H12.75V4.5ZM13.125 4.5C13.125 4.59946 13.0855 4.69484 13.0152 4.76517C12.9448 4.83549 12.8495 4.875 12.75 4.875C12.6505 4.875 12.5552 4.83549 12.4848 4.76517C12.4145 4.69484 12.375 4.59946 12.375 4.5C12.375 4.40054 12.4145 4.30516 12.4848 4.23484C12.5552 4.16451 12.6505 4.125 12.75 4.125C12.8495 4.125 12.9448 4.16451 13.0152 4.23484C13.0855 4.30516 13.125 4.40054 13.125 4.5Z"
          stroke="currentColor" stroke-width="1.5" stroke-linecap="round" stroke-linejoin="round"/>
</svg>
