<svg width="14" height="14" viewBox="0 0 14 14" fill="currentColor" xmlns="http://www.w3.org/2000/svg">
    <path fill-rule="evenodd" clip-rule="evenodd"
          d="M7 0C3.13409 0 0 3.13409 0 7C0 10.8659 3.13409 14 7 14C10.8659 14 14 10.8659 14 7C14 3.13409 10.8659 0 7 0ZM4.80827 12.2913C5.50313 12.5791 6.24788 12.7273 7 12.7273C8.51897 12.7273 9.97572 12.1239 11.0498 11.0498C12.1239 9.97572 12.7273 8.51897 12.7273 7C12.7273 5.48103 12.1239 4.02428 11.0498 2.95021C9.97572 1.87613 8.51897 1.27273 7 1.27273C6.24788 1.27273 5.50313 1.42087 4.80827 1.70869C4.1134 1.99651 3.48203 2.41838 2.95021 2.95021C2.41838 3.48203 1.99651 4.1134 1.70869 4.80827C1.42087 5.50313 1.27273 6.24788 1.27273 7C1.27273 7.75212 1.42087 8.49687 1.70869 9.19173C1.99651 9.8866 2.41838 10.518 2.95021 11.0498C3.48203 11.5816 4.1134 12.0035 4.80827 12.2913ZM3.18182 7.04402L5.88191 9.74475L10.3816 5.24438L9.48118 4.34393L5.88191 7.94384L4.08164 6.1442L3.18182 7.04402Z"/>
</svg>
