<svg width="14" height="10" viewBox="0 0 14 10" fill="currentColor" xmlns="http://www.w3.org/2000/svg">
    <path d="M8.90909 10C7.48788 10 6.28409 9.51562 5.29773 8.54688C4.31136 7.57812 3.81818 6.39583 3.81818 5C3.81818 3.61458 4.31136 2.4349 5.29773 1.46094C6.28409 0.486979 7.48788 0 8.90909 0C10.3197 0 11.5208 0.486979 12.5125 1.46094C13.5042 2.4349 14 3.61458 14 5C14 6.39583 13.5042 7.57812 12.5125 8.54688C11.5208 9.51562 10.3197 10 8.90909 10ZM8.90909 8.75C9.9697 8.75 10.8712 8.38542 11.6136 7.65625C12.3561 6.92708 12.7273 6.04167 12.7273 5C12.7273 3.95833 12.3561 3.07292 11.6136 2.34375C10.8712 1.61458 9.9697 1.25 8.90909 1.25C7.84848 1.25 6.94697 1.61458 6.20455 2.34375C5.46212 3.07292 5.09091 3.95833 5.09091 5C5.09091 6.04167 5.46212 6.92708 6.20455 7.65625C6.94697 8.38542 7.84848 8.75 8.90909 8.75ZM10.3568 7.32812L11.2636 6.4375L9.54545 4.75V2.5H8.27273V5.26562L10.3568 7.32812ZM0.636364 3.125V1.875H3.18182V3.125H0.636364ZM0 5.625V4.375H3.18182V5.625H0ZM0.636364 8.125V6.875H3.18182V8.125H0.636364Z"/>
</svg>
